<svg width="19" height="19" viewBox="0 0 19 19" fill="none" xmlns="http://www.w3.org/2000/svg">
<g clip-path="url(#clip0_616_58630)">
<path d="M18.6332 9.81783C18.6332 11.4414 18.2034 12.9642 17.4515 14.2791L15.1133 12.9309C15.6483 11.9927 15.9332 10.9271 15.9332 9.81783C15.9332 9.80118 15.9332 9.78408 15.9327 9.76743L18.6327 9.76562C18.6332 9.78317 18.6332 9.80028 18.6332 9.81783Z" fill="#E2604C"/>
<path d="M17.4487 14.2818C16.6621 15.657 15.5236 16.8045 14.1556 17.6014L12.8047 15.2646C13.2664 14.995 13.6966 14.6634 14.0849 14.275C14.4908 13.8696 14.8342 13.4187 15.1105 12.9336L17.4487 14.2818Z" fill="#CB4248"/>
<path d="M14.1583 17.6025C12.8304 18.3769 11.286 18.8206 9.63807 18.8215L9.63672 16.1215C10.7689 16.1211 11.8552 15.8236 12.8074 15.2656L14.1583 17.6025Z" fill="#A13A77"/>
<path d="M9.63879 18.8179H9.63384C7.98774 18.8179 6.44469 18.376 5.11719 17.6038L6.46539 15.2656C7.41714 15.8218 8.50254 16.1179 9.63384 16.1179H9.63744L9.63879 18.8179Z" fill="#96439D"/>
<path d="M6.46521 15.2658L5.11701 17.604C3.74811 16.8084 2.60826 15.6622 1.82031 14.2879L4.15671 12.9375C4.43301 13.4199 4.77501 13.869 5.17866 14.2726C5.56881 14.6628 6.00081 14.9953 6.46521 15.2658Z" fill="#72469E"/>
<path d="M4.15586 12.9404L1.81946 14.2908C1.06436 12.9741 0.632812 11.4477 0.632812 9.82099C0.632812 9.80704 0.632812 9.79309 0.633263 9.77914L3.33326 9.77734C3.33281 9.79174 3.33281 9.80659 3.33281 9.82099C3.33281 10.9329 3.61901 12.0008 4.15586 12.9404Z" fill="#3255A5"/>
<path d="M4.19276 6.63726C3.63881 7.58001 3.34001 8.65551 3.33281 9.77691L0.632812 9.77871C0.640012 8.14206 1.08416 6.60846 1.85501 5.28906L4.19276 6.63726Z" fill="#449886"/>
<path d="M6.49902 4.35248C6.02157 4.62608 5.57742 4.96583 5.17782 5.36543C4.79217 5.75153 4.46232 6.17858 4.19322 6.63713L1.85547 5.28893C2.64792 3.93128 3.78552 2.80043 5.14812 2.01562L6.49902 4.35248Z" fill="#4EAB64"/>
<path d="M9.62954 3.52031C8.51354 3.52076 7.44164 3.80966 6.49934 4.35236L5.14844 2.01551C6.46739 1.25591 7.99694 0.821213 9.62819 0.820312L9.62954 3.52031Z" fill="#AACE5E"/>
<path d="M14.1061 2.01056L12.7579 4.34876C11.8161 3.80786 10.7451 3.52031 9.62995 3.52031H9.62635L9.625 0.820312H9.62995C11.2594 0.820312 12.7881 1.25366 14.1061 2.01056Z" fill="#FBE64D"/>
<path d="M17.4062 5.27706L15.0693 6.62841C14.8011 6.17211 14.4726 5.74686 14.0883 5.36256C13.6869 4.96116 13.241 4.62096 12.7617 4.34601L14.1099 2.00781C15.4734 2.79081 16.6124 3.92076 17.4062 5.27706Z" fill="#EFA73F"/>
<path d="M18.6343 9.76955L15.9343 9.77135C15.9258 8.64995 15.6261 7.5749 15.0703 6.6326L17.4072 5.28125C18.1794 6.6002 18.6253 8.1329 18.6343 9.76955Z" fill="#E97F3E"/>
</g>
<defs>
<clipPath id="clip0_616_58630">
<rect width="18" height="18" fill="white" transform="translate(0.632812 0.820312)"/>
</clipPath>
</defs>
</svg>
