<svg xmlns="http://www.w3.org/2000/svg" class="icon icon-shop" width="24" height="24" viewBox="0 0 24 24" fill="none" aria-hidden="true" focusable="false" role="presentation">
    <g clip-path="url(#clip0_13429_17396)">
        <path d="M18.8563 10.2836C18.085 10.2836 17.3121 10.2853 16.5408 10.2836C14.8537 10.2802 13.7536 9.24849 13.7175 7.56621C13.683 5.95602 13.6882 4.34412 13.7158 2.73222C13.7399 1.25249 14.6351 0.16416 16.0984 0.0869126C17.9783 -0.0126511 19.872 0.00623167 21.7519 0.110945C23.019 0.181326 23.8539 1.12546 23.9555 2.39748C24.0261 3.29012 23.9899 4.19134 23.9951 5.09085C24.0002 5.88907 24.0037 6.6873 23.9934 7.48552C23.9727 9.23476 22.9208 10.2767 21.1735 10.2836C20.4005 10.2853 19.6275 10.2836 18.8563 10.2836ZM18.8494 8.59446C19.6792 8.59446 20.509 8.60476 21.3387 8.59103C21.9981 8.58073 22.2925 8.30263 22.2994 7.64689C22.3149 6.0058 22.3149 4.36472 22.2994 2.72363C22.2925 2.06102 21.9447 1.72971 21.275 1.72456C19.6723 1.71426 18.0695 1.71426 16.4685 1.72456C15.7661 1.728 15.4304 2.049 15.4252 2.74595C15.4115 4.35785 15.4115 5.97147 15.4235 7.58337C15.4287 8.32667 15.7007 8.58416 16.4478 8.59274C17.2466 8.60304 18.0489 8.59618 18.8494 8.59446Z"/>
        <path d="M23.9931 18.8743C23.9931 19.6159 23.9965 20.3575 23.9931 21.099C23.9845 22.8208 23.2064 23.8113 21.502 23.9194C19.7237 24.0327 17.9247 24.0207 16.1463 23.9109C14.5969 23.8147 13.7551 22.8311 13.7189 21.2862C13.6811 19.6605 13.6776 18.0332 13.7207 16.4075C13.7637 14.7664 14.8569 13.7485 16.5113 13.7382C18.071 13.7279 19.629 13.7279 21.1887 13.7382C22.912 13.7485 23.9707 14.8008 23.9931 16.5191C24.0017 17.3053 23.9931 18.0898 23.9931 18.8743ZM18.8595 22.2938C19.6462 22.2938 20.4312 22.2972 21.218 22.2921C22.0116 22.2887 22.2957 22.0294 22.3025 21.2535C22.3146 19.6571 22.3146 18.0606 22.3025 16.4642C22.2974 15.7363 21.9737 15.4342 21.2404 15.4325C19.6393 15.4291 18.0383 15.4273 16.439 15.4325C15.7607 15.4342 15.4319 15.7363 15.4267 16.423C15.4112 18.0623 15.4095 19.7017 15.4267 21.3394C15.4336 22.0174 15.7331 22.2852 16.4166 22.2904C17.2309 22.3007 18.0452 22.2938 18.8595 22.2938Z"/>
        <path d="M0.00672477 5.15593C0.00672477 4.37143 -0.00188293 3.58694 0.00844631 2.80416C0.0291048 1.16308 0.950129 0.119376 2.59076 0.0524283C4.2882 -0.0179529 5.99424 -0.0128031 7.69168 0.0558616C9.28927 0.121093 10.2413 1.19913 10.2482 2.79386C10.2551 4.39032 10.2568 5.98677 10.2482 7.58494C10.2396 9.18482 9.15671 10.2714 7.55396 10.2817C5.93915 10.292 4.32263 10.292 2.70782 10.2817C1.09818 10.2714 0.0514848 9.24662 0.0101678 7.63815C-0.0104906 6.81074 0.00672477 5.98333 0.00672477 5.15593ZM5.13519 8.59602C5.93571 8.59602 6.73623 8.60289 7.53674 8.59431C8.28045 8.58744 8.56106 8.3351 8.56795 7.59352C8.58516 5.98333 8.58516 4.37143 8.56622 2.76125C8.55762 2.04027 8.21847 1.72785 7.49198 1.72613C5.90644 1.71755 4.32091 1.71755 2.73365 1.72613C2.03126 1.72956 1.66973 2.08318 1.66629 2.78185C1.65596 4.3783 1.65596 5.97475 1.66629 7.5712C1.67145 8.28703 1.97789 8.58572 2.69233 8.59431C3.5049 8.60289 4.32091 8.59602 5.13519 8.59602Z"/>
        <path d="M0.00521556 18.8882C0.00521556 18.0745 -0.00855677 17.2608 0.00865864 16.4489C0.0413679 14.8026 1.05019 13.7727 2.69771 13.7452C4.31423 13.7177 5.93076 13.7177 7.54556 13.7452C9.20341 13.7727 10.2415 14.8421 10.2467 16.4849C10.2535 18.0676 10.2535 19.6521 10.2467 21.2348C10.2398 22.8072 9.42204 23.8132 7.84683 23.911C6.08053 24.0192 4.3039 23.9591 2.53072 23.9471C2.22428 23.9453 1.90924 23.8526 1.61486 23.7514C0.64735 23.4183 0.120559 22.6939 0.0465325 21.7103C-0.0240506 20.7747 0.0310387 19.8289 0.0310387 18.8882C0.0241525 18.8882 0.0155448 18.8882 0.00521556 18.8882ZM5.13885 22.294C5.93937 22.294 6.73988 22.2991 7.5404 22.2922C8.23246 22.2871 8.5475 22.033 8.55783 21.3635C8.58193 19.6967 8.58193 18.0282 8.55955 16.3613C8.55094 15.7313 8.20319 15.4361 7.56967 15.4326C5.94109 15.4275 4.31079 15.4275 2.68049 15.4326C2.02286 15.4344 1.66995 15.776 1.66478 16.4369C1.65445 18.047 1.65445 19.6589 1.66478 21.2691C1.66995 21.9747 1.99187 22.2854 2.69426 22.2905C3.50855 22.2991 4.32284 22.294 5.13885 22.294Z"/>
    </g>
    <defs>
        <clipPath id="clip0_13429_17396">
            <rect width="24" height="24" fill="white"/>
        </clipPath>
    </defs>
</svg>