<svg width="22" height="17" viewBox="0 0 22 17" fill="none" xmlns="http://www.w3.org/2000/svg">
<path d="M11.1434 0.821039C13.9682 0.821039 16.793 0.818813 19.6184 0.822153C20.4498 0.823266 21.0688 1.1956 21.446 1.95641C21.5697 2.20686 21.6321 2.47679 21.6321 2.76008C21.6321 6.8001 21.6348 10.8396 21.6299 14.8796C21.6288 15.9432 20.787 16.7825 19.7142 16.8181C19.6687 16.8198 19.6233 16.8192 19.5773 16.8192C13.9458 16.8192 8.31418 16.8186 2.68205 16.8203C1.99569 16.8203 1.42755 16.576 1.01102 16.0116C0.745565 15.6515 0.632812 15.2408 0.632812 14.79C0.635549 11.8993 0.634455 9.00851 0.634455 6.11721C0.634455 5.01913 0.63336 3.92105 0.634455 2.82352C0.636097 1.94695 1.1298 1.22065 1.94533 0.939029C2.17741 0.858885 2.43575 0.826605 2.68205 0.826048C5.5025 0.818257 8.32294 0.821039 11.1434 0.821039ZM1.87363 4.63622C1.8698 4.70857 1.86597 4.7492 1.86597 4.78927C1.86597 8.12971 1.86597 11.4696 1.86652 14.81C1.86652 14.8791 1.8709 14.9497 1.88786 15.016C1.97817 15.3666 2.24637 15.5653 2.63006 15.5658C4.18395 15.567 5.7373 15.5658 7.2912 15.5658C11.3963 15.5658 15.5018 15.5658 19.6069 15.5658C20.1132 15.5658 20.3994 15.2775 20.3994 14.7689C20.3994 11.4473 20.3994 8.12526 20.3994 4.80374C20.3994 4.75644 20.3951 4.70913 20.3918 4.64012C20.3195 4.68798 20.2697 4.7197 20.221 4.7531C17.5763 6.54576 14.9321 8.33898 12.2868 10.13C11.5298 10.6426 10.7438 10.6487 10.0109 10.1517C7.65409 8.55492 5.29834 6.95705 2.94149 5.35919C2.59393 5.12321 2.24582 4.88778 1.87308 4.63566L1.87363 4.63622ZM11.1363 2.07384C8.29776 2.07384 5.45871 2.07384 2.6202 2.07384C2.25568 2.07384 1.99405 2.26419 1.89553 2.59255C1.80412 2.8981 1.91085 3.15412 2.22393 3.36616C5.04985 5.28238 7.87576 7.19804 10.7028 9.11203C10.7843 9.16713 10.879 9.21054 10.9732 9.23781C11.2353 9.31351 11.4488 9.19552 11.6595 9.05248C13.7307 7.64551 15.804 6.24132 17.8762 4.83602C18.6151 4.33512 19.3557 3.83701 20.0918 3.33221C20.5314 3.03112 20.4947 2.39665 20.019 2.16289C19.8937 2.10111 19.7383 2.07718 19.597 2.07718C16.7766 2.07217 13.9562 2.07384 11.1357 2.07384H11.1363Z" fill="currentColor"/>
</svg>
