<svg xmlns="http://www.w3.org/2000/svg" class="icon icon-cart icon-cart-classy" width="26" height="26" viewBox="0 0 26 26" aria-hidden="true" focusable="false" role="presentation" fill="none">
		<path d="M1.00391 24.9929C1.00391 18.982 1.00391 13.0027 1.00391 6.99882C2.09001 6.99882 3.14437 6.99882 4.19873 6.99882C5.22841 6.99882 6.25809 6.98118 7.28777 7.00587C7.71445 7.01645 7.84493 6.9071 7.85904 6.52259C7.88725 5.73947 7.86961 4.92461 8.10235 4.18029C8.63129 2.47295 9.98187 1.43937 11.9636 1.10072C13.9666 0.758547 15.6522 1.29121 16.9851 2.65285C17.7009 3.38659 18.0113 4.26142 18.0783 5.20681C18.11 5.63012 18.0959 6.05696 18.0994 6.48379C18.1029 6.98471 18.11 6.99529 18.6707 6.99529C20.6031 6.99529 22.532 7.00587 24.4644 6.98823C24.877 6.98471 25.0039 7.08701 25.0039 7.45034C24.9933 13.1509 24.9969 18.8514 24.9969 24.5485C24.9969 24.806 25.0039 25 24.5808 25C16.7347 24.9894 8.89929 24.9929 1.00391 24.9929ZM18.0924 12.1879C17.2672 12.2655 17.2672 12.2655 17.2672 11.6305C17.2672 10.4417 17.2672 9.2494 17.2672 8.06061C17.2672 7.95126 17.2531 7.84543 17.2425 7.71138C17.0909 7.71138 16.978 7.71138 16.8652 7.71138C14.3192 7.71138 11.7732 7.71138 9.23077 7.71138C8.67008 7.71138 8.67008 7.71138 8.67008 8.20877C8.67008 9.42226 8.66303 10.6393 8.67361 11.8527C8.67714 12.1208 8.59603 12.2231 8.26456 12.2302C7.89782 12.2373 7.83787 12.0997 7.83787 11.8281C7.84493 10.5899 7.83083 9.34818 7.84846 8.11C7.85198 7.79957 7.73914 7.70433 7.38298 7.70786C5.71152 7.72197 4.03652 7.71491 2.36506 7.71491C1.7938 7.71491 1.79379 7.71491 1.79379 8.20877C1.79379 13.3943 1.79379 18.5798 1.79379 23.7654C1.79379 24.2768 1.79379 24.2768 2.38974 24.2768C9.45292 24.2768 16.5161 24.2768 23.5793 24.2768C24.1717 24.2768 24.1717 24.2768 24.1717 23.7548C24.1717 20.4106 24.1717 17.0665 24.1717 13.7224C24.1717 11.8704 24.1646 10.0149 24.1788 8.16291C24.1823 7.82427 24.0624 7.70786 23.6604 7.71138C21.9607 7.72902 20.2575 7.72549 18.5543 7.71138C18.1946 7.70786 18.0747 7.81368 18.0853 8.12058C18.1065 8.73438 18.0924 9.34818 18.0924 9.96197C18.0924 10.6957 18.0924 11.433 18.0924 12.1879ZM12.9686 6.99529C14.2557 6.99529 15.5428 6.98823 16.8264 6.99882C17.1579 7.00234 17.2919 6.91415 17.2707 6.61431C17.2425 6.12751 17.2601 5.63717 17.239 5.15037C17.2073 4.40253 16.9146 3.71818 16.3786 3.14671C15.2219 1.91559 13.7092 1.43937 11.9425 1.81329C10.3733 2.14488 9.25898 3.00561 8.87814 4.40958C8.68772 5.10451 8.74061 5.84883 8.66656 6.56845C8.63129 6.90004 8.7794 7.00587 9.15319 7.00234C10.4262 6.98823 11.6992 6.99529 12.9686 6.99529Z" fill="currentColor" stroke="currentColor" stroke-width="0.75" stroke-miterlimit="10"/>
	</svg>