<svg width="24" height="25" viewBox="0 0 24 25" fill="none" class="icon icon-cart" xmlns="http://www.w3.org/2000/svg">
<path d="M6.85943 6.49207C6.85943 6.43354 6.85886 6.389 6.85943 6.34447C6.86801 5.7901 6.85886 5.23522 6.89087 4.68235C6.9383 3.85779 7.23835 3.10028 7.775 2.41982C8.32994 1.71634 9.06091 1.19699 9.95704 0.859759C10.5166 0.649116 11.1046 0.542044 11.7133 0.508521C12.4363 0.468994 13.1352 0.568062 13.8125 0.783207C14.592 1.03037 15.259 1.42664 15.8139 1.96751C16.6272 2.76005 17.0581 3.69218 17.1135 4.7529C17.141 5.27725 17.133 5.80261 17.141 6.32746C17.1415 6.377 17.141 6.42603 17.141 6.49207H17.317C18.6406 6.49207 19.9648 6.48957 21.2884 6.49308C22.0148 6.49508 22.6727 6.68521 23.2065 7.1225C23.6088 7.45223 23.8408 7.87851 23.9391 8.35384C23.9729 8.51695 23.9963 8.68406 23.9963 8.84967C23.9997 12.5352 24.0026 16.2207 23.9963 19.9062C23.9946 20.9924 23.6465 21.9886 22.8538 22.8381C22.1137 23.6312 21.169 24.1575 20.0185 24.3677C19.6111 24.4422 19.1899 24.4923 18.7749 24.4928C14.2605 24.5013 9.74558 24.5023 5.23119 24.4958C4.00072 24.4938 2.87255 24.1886 1.90784 23.5021C0.9957 22.8532 0.392181 22.0231 0.151002 21.0114C0.0658462 20.6547 0.00926628 20.2859 0.00812326 19.9227C-0.00273551 16.2257 -0.00102097 12.5277 0.00355114 8.82916C0.00412266 8.19273 0.242444 7.61934 0.748805 7.15953C1.11972 6.8223 1.5975 6.62767 2.12615 6.54511C2.31704 6.51509 2.51307 6.49508 2.70681 6.49458C4.02587 6.49007 5.34492 6.49207 6.66398 6.49207H6.85886H6.85943ZM6.85943 7.99509C6.82171 7.99159 6.80343 7.98809 6.78457 7.98809C5.37978 7.98809 3.975 7.98509 2.57022 7.99209C2.42391 7.99309 2.26618 8.03262 2.13473 8.09066C1.80096 8.23826 1.70952 8.50944 1.70952 8.81415C1.70952 12.5247 1.70723 16.2352 1.71409 19.9457C1.71409 20.1929 1.75581 20.4455 1.82097 20.6867C2.18045 22.0216 3.52351 22.9963 5.1769 22.9998C9.72501 23.0098 14.2731 23.0048 18.8207 23.0013C19.3596 23.0013 19.8848 22.9042 20.3626 22.6835C21.6136 22.1052 22.2766 21.18 22.2835 19.9487C22.3029 16.2382 22.2903 12.5277 22.2903 8.81715C22.2903 8.28029 21.9583 7.98809 21.3467 7.98809C19.9991 7.98809 18.6515 7.98809 17.3033 7.98809H17.1398C17.1398 8.05313 17.1398 8.10217 17.1398 8.1512C17.1398 9.327 17.1427 10.5028 17.1375 11.6786C17.1364 11.9803 17.0352 12.251 16.698 12.3961C16.3849 12.5312 16.0717 12.5177 15.7785 12.346C15.5042 12.1854 15.4339 11.9358 15.4327 11.6691C15.4287 10.4933 15.431 9.31749 15.431 8.14169C15.431 8.09316 15.431 8.04513 15.431 7.99559H8.56655C8.56655 8.05313 8.56655 8.10267 8.56655 8.1517C8.56655 9.28597 8.56712 10.4197 8.5654 11.554C8.5654 11.6616 8.55569 11.7702 8.54026 11.8772C8.49796 12.1689 8.25221 12.4006 7.92531 12.4636C7.56068 12.5337 7.18348 12.4121 7.00746 12.1684C6.8943 12.0118 6.85886 11.8372 6.85886 11.6556C6.85829 10.4883 6.85886 9.32099 6.85886 8.1532V7.99459L6.85943 7.99509ZM15.4321 6.48807C15.4321 6.01275 15.4367 5.55094 15.431 5.08862C15.4213 4.26557 15.1407 3.52907 14.4714 2.93416C13.5639 2.12762 12.4688 1.81591 11.2035 2.08359C9.63299 2.41581 8.57112 3.62563 8.56769 5.03959C8.56655 5.47739 8.56769 5.91468 8.56769 6.35248V6.48707H15.4321V6.48807Z" fill="currentColor"/>
</svg>
