<svg aria-hidden="true" focusable="false" class="icon icon-search icon-search-pill" width="16" height="16" viewBox="0 0 16 16" fill="none">
<path d="M12.8416 6.36867C12.6287 4.74442 11.8402 3.41984 10.4974 2.43396C9.49352 1.69486 8.32332 1.3335 7.14935 1.3335C5.63653 1.3335 4.11867 1.93535 2.95099 3.10884C0.991005 5.07934 0.786945 8.28378 2.47737 10.5615C3.34904 11.7363 4.48019 12.4111 6.03835 12.6881C7.99708 13.0357 10.1057 12.3998 11.2872 11.108C12.3655 9.92817 12.897 8.64136 12.897 7.19465C12.897 6.9252 12.8782 6.64945 12.8416 6.36867ZM7.1166 11.9717H7.11408C5.82043 11.9717 4.60363 11.4668 3.68788 10.5489C2.77087 9.63228 2.26575 8.41346 2.26701 7.11784C2.26827 4.44601 4.44114 2.27027 7.1103 2.26775H7.11534C8.40898 2.26775 9.62452 2.7714 10.5415 3.68677C11.4573 4.6034 11.9624 5.82222 11.9637 7.11784C11.9637 9.79345 9.78953 11.9704 7.1166 11.9717ZM14.5333 13.8805L12.2886 11.638C12.1992 11.5499 12.0821 11.5058 11.9649 11.5058C11.8478 11.5058 11.7319 11.5499 11.6425 11.638C11.4623 11.8194 11.4611 12.1089 11.6387 12.2865L13.8796 14.534C14.0559 14.7103 14.3456 14.7115 14.5232 14.5352C14.619 14.4408 14.6668 14.3262 14.6668 14.2028C14.6668 14.0795 14.6202 13.9661 14.5333 13.8805Z" fill="currentColor"></path>
</svg>