<svg xmlns="http://www.w3.org/2000/svg" width="30" height="30" viewBox="0 0 30 30" fill="none">
    <path d="M29.3385 0.186742C28.9239 -0.0541001 28.4245 -0.0626339 28.0021 0.164934L0.690702 15.5646C0.230771 15.8178 -0.0324604 16.2947 0.00321564 16.8125C0.0379274 17.3226 0.35419 17.755 0.832442 17.9493L11.4456 22.6107L11.9209 22.8202V28.6716C11.9209 29.213 12.2497 29.6947 12.7588 29.9004C12.9256 29.9678 13.1002 30 13.2728 30C13.6266 30 13.9728 29.8625 14.2322 29.6027L18.2414 25.5966L25.6388 28.846L25.6822 28.8641C25.8404 28.9247 26.0062 28.9541 26.1711 28.9541C26.4401 28.9541 26.7053 28.8754 26.9338 28.7228C27.2857 28.4857 27.5027 28.1008 27.52 27.6835L29.9952 1.41656L30 1.32932C30 0.855222 29.7522 0.428533 29.3385 0.186742ZM19.6858 24.1534L14.424 21.8426L27.8083 4.07625L25.6687 26.7818L19.6858 24.1534ZM13.8494 27.2825V23.667L16.3621 24.7707L13.8494 27.2825ZM25.7353 3.62775L12.566 21.0262L2.62492 16.6598L25.7353 3.62775Z" fill="currentColor"/>
</svg>