<svg width="18" height="18" viewBox="0 0 18 18" fill="none" xmlns="http://www.w3.org/2000/svg">
<path d="M9.00361 11.7728C10.533 11.7728 11.7728 10.533 11.7728 9.00361C11.7728 7.4742 10.533 6.23438 9.00361 6.23438C7.4742 6.23438 6.23438 7.4742 6.23438 9.00361C6.23438 10.533 7.4742 11.7728 9.00361 11.7728Z" fill="currentColor"/>
<path d="M9.6893 8.30469H8.30469V9.6893H9.6893V8.30469Z" fill="none"/>
<path d="M2.76923 5.53846C4.29864 5.53846 5.53846 4.29864 5.53846 2.76923C5.53846 1.23983 4.29864 0 2.76923 0C1.23983 0 0 1.23983 0 2.76923C0 4.29864 1.23983 5.53846 2.76923 5.53846Z" fill="currentColor"/>
<path d="M3.46274 2.07812H2.07812V3.46274H3.46274V2.07812Z" fill="none"/>
<path d="M9.00361 17.9994C10.533 17.9994 11.7728 16.7596 11.7728 15.2302C11.7728 13.7008 10.533 12.4609 9.00361 12.4609C7.4742 12.4609 6.23438 13.7008 6.23438 15.2302C6.23438 16.7596 7.4742 17.9994 9.00361 17.9994Z" fill="currentColor"/>
<path d="M9.6893 14.5391H8.30469V15.9237H9.6893V14.5391Z" fill="none"/>
<path d="M2.76923 11.7728C4.29864 11.7728 5.53846 10.533 5.53846 9.00361C5.53846 7.4742 4.29864 6.23438 2.76923 6.23438C1.23983 6.23438 0 7.4742 0 9.00361C0 10.533 1.23983 11.7728 2.76923 11.7728Z" fill="currentColor"/>
<path d="M3.46274 8.30469H2.07812V9.6893H3.46274V8.30469Z" fill="none"/>
<path d="M2.76923 17.9994C4.29864 17.9994 5.53846 16.7596 5.53846 15.2302C5.53846 13.7008 4.29864 12.4609 2.76923 12.4609C1.23983 12.4609 0 13.7008 0 15.2302C0 16.7596 1.23983 17.9994 2.76923 17.9994Z" fill="currentColor"/>
<path d="M3.46274 14.5391H2.07812V15.9237H3.46274V14.5391Z" fill="none"/>
<path d="M15.2302 5.53846C16.7596 5.53846 17.9994 4.29864 17.9994 2.76923C17.9994 1.23983 16.7596 0 15.2302 0C13.7008 0 12.4609 1.23983 12.4609 2.76923C12.4609 4.29864 13.7008 5.53846 15.2302 5.53846Z" fill="currentColor"/>
<path d="M15.9237 2.07812H14.5391V3.46274H15.9237V2.07812Z" fill="none"/>
<path d="M9.00361 5.53846C10.533 5.53846 11.7728 4.29864 11.7728 2.76923C11.7728 1.23983 10.533 0 9.00361 0C7.4742 0 6.23438 1.23983 6.23438 2.76923C6.23438 4.29864 7.4742 5.53846 9.00361 5.53846Z" fill="currentColor"/>
<path d="M9.6893 2.07812H8.30469V3.46274H9.6893V2.07812Z" fill="none"/>
<path d="M15.2302 11.7728C16.7596 11.7728 17.9994 10.533 17.9994 9.00361C17.9994 7.4742 16.7596 6.23438 15.2302 6.23438C13.7008 6.23438 12.4609 7.4742 12.4609 9.00361C12.4609 10.533 13.7008 11.7728 15.2302 11.7728Z" fill="currentColor"/>
<path d="M15.9237 8.30469H14.5391V9.6893H15.9237V8.30469Z" fill="none"/>
<path d="M15.2302 17.9994C16.7596 17.9994 17.9994 16.7596 17.9994 15.2302C17.9994 13.7008 16.7596 12.4609 15.2302 12.4609C13.7008 12.4609 12.4609 13.7008 12.4609 15.2302C12.4609 16.7596 13.7008 17.9994 15.2302 17.9994Z" fill="currentColor"/>
<path d="M15.9237 14.5391H14.5391V15.9237H15.9237V14.5391Z" fill="none"/>
</svg>
