<svg width="28" height="28" fill="none" class="icon icon-social" aria-hidden="true" focusable="false" role="presentation" viewBox="0 0 28 28" xmlns="http://www.w3.org/2000/svg">
<path d="M21.5919 18.834C20.2504 18.834 19.0417 19.4134 18.2028 20.3349L10.6574 15.6617C10.8589 15.1461 10.9706 14.5859 10.9706 14C10.9706 13.4138 10.8589 12.8537 10.6574 12.3382L18.2028 7.66478C19.0417 8.58635 20.2504 9.1659 21.5919 9.1659C24.1191 9.1659 26.175 7.11 26.175 4.58285C26.175 2.05569 24.1191 0 21.5919 0C19.0648 0 17.0088 2.0559 17.0088 4.58306C17.0088 5.16903 17.1208 5.72915 17.322 6.24483L9.77687 10.918C8.93797 9.99647 7.7293 9.41691 6.38775 9.41691C3.86059 9.41691 1.80469 11.473 1.80469 14C1.80469 16.5271 3.86059 18.583 6.38775 18.583C7.7293 18.583 8.93797 18.0037 9.77687 17.0819L17.322 21.7551C17.1208 22.2708 17.0088 22.8309 17.0088 23.4171C17.0088 25.944 19.0648 27.9999 21.5919 27.9999C24.1191 27.9999 26.175 25.944 26.175 23.4171C26.175 20.8899 24.1191 18.834 21.5919 18.834ZM18.68 4.58306C18.68 2.97747 19.9863 1.67117 21.5919 1.67117C23.1975 1.67117 24.5038 2.97747 24.5038 4.58306C24.5038 6.18865 23.1975 7.49495 21.5919 7.49495C19.9863 7.49495 18.68 6.18865 18.68 4.58306ZM6.38775 16.9119C4.78195 16.9119 3.47564 15.6056 3.47564 14C3.47564 12.3944 4.78195 11.0881 6.38775 11.0881C7.99333 11.0881 9.29942 12.3944 9.29942 14C9.29942 15.6056 7.99333 16.9119 6.38775 16.9119ZM18.68 23.4169C18.68 21.8113 19.9863 20.505 21.5919 20.505C23.1975 20.505 24.5038 21.8113 24.5038 23.4169C24.5038 25.0225 23.1975 26.3288 21.5919 26.3288C19.9863 26.3288 18.68 25.0225 18.68 23.4169Z" fill="currentColor"/>
</svg>
